<?xml version="1.0" encoding="UTF-8" standalone="no"?>
<!DOCTYPE svg PUBLIC "-//W3C//DTD SVG 1.1//EN" "http://www.w3.org/Graphics/SVG/1.1/DTD/svg11.dtd">
<svg width="100%" height="100%" viewBox="0 0 3544 1749" version="1.1" xmlns="http://www.w3.org/2000/svg" xmlns:xlink="http://www.w3.org/1999/xlink" xml:space="preserve" xmlns:serif="http://www.serif.com/" style="fill-rule:evenodd;clip-rule:evenodd;stroke-linecap:round;stroke-linejoin:round;stroke-miterlimit:10;">
    <g transform="matrix(1,0,0,1,545.124212,545.439858)">
        <g transform="matrix(1,0,0,1,-3643.75,-5168.75)">
            <g transform="matrix(0.667722,0,0,0.667722,3217.295677,4763.270458)">
                <path d="M1234.695,1681.555L513.337,1681.555L693.676,1142.087L1054.355,1142.087L1234.695,1681.555Z" style="fill:none;stroke:rgb(237,162,16);stroke-width:416.67px;"/>
            </g>
            <g transform="matrix(0.667722,0,0,0.667722,3217.295677,4763.270458)">
                <path d="M1234.695,1681.555L513.337,1681.555L693.676,1142.087L1054.355,1142.087L1234.695,1681.555Z" style="fill:rgb(237,162,16);"/>
            </g>
            <g transform="matrix(0.860878,0,0,2.337028,3043.109265,2682.881294)">
                <rect x="801.704" y="1030.473" width="157.087" height="186.024" style="fill:rgb(237,162,16);"/>
            </g>
            <g transform="matrix(24.645392,0,0,15.972221,-5088.012204,-4575.079783)">
                <g transform="matrix(0.160253,0,0,0.160253,303.90821,538.75904)">
                    <path d="M354.214,414.528L402.787,488.937C344.815,401.505 330.054,461.71 305.641,488.937L354.214,414.528Z" style="fill:none;stroke:rgb(237,162,16);stroke-width:30.21px;stroke-miterlimit:100;"/>
                </g>
                <g transform="matrix(0.160253,0,0,0.160253,303.90821,538.75904)">
                    <path d="M354.214,414.528L402.787,488.937C344.815,401.505 330.054,461.71 305.641,488.937L354.214,414.528Z" style="fill:rgb(237,162,16);"/>
                </g>
            </g>
            <g transform="matrix(14.8128,0,0,10.039825,920.732696,-1423.621542)">
                <g transform="matrix(0.160253,0,0,0.160253,165.0001,593.511528)">
                    <path d="M194.027,830.76L194.027,887.075C194.027,895.491 189.396,902.323 183.692,902.323C177.989,902.323 173.358,895.491 173.358,887.075L173.358,830.76C173.358,822.344 177.989,815.512 183.692,815.512C189.396,815.512 194.027,822.344 194.027,830.76Z" style="fill:none;stroke:rgb(235,235,235);stroke-width:0.33px;stroke-miterlimit:100;"/>
                </g>
                <g transform="matrix(0.160253,0,0,0.160253,165.0001,593.511528)">
                    <path d="M194.027,830.76L194.027,887.075C194.027,895.491 189.396,902.323 183.692,902.323C177.989,902.323 173.358,895.491 173.358,887.075L173.358,830.76C173.358,822.344 177.989,815.512 183.692,815.512C189.396,815.512 194.027,822.344 194.027,830.76Z" style="fill:white;"/>
                </g>
            </g>
            <g transform="matrix(14.8128,0,0,7.681879,920.732696,-1651.630617)">
                <g transform="matrix(0.160253,0,0,0.160253,165.0001,800.614224)">
                    <path d="M194.027,835.44L194.027,882.395C194.027,893.394 189.396,902.323 183.692,902.323C177.989,902.323 173.358,893.394 173.358,882.395L173.358,835.44C173.358,824.442 177.989,815.512 183.692,815.512C189.396,815.512 194.027,824.442 194.027,835.44Z" style="fill:none;stroke:rgb(235,235,235);stroke-width:0.35px;stroke-miterlimit:100;"/>
                </g>
                <g transform="matrix(0.160253,0,0,0.160253,165.0001,800.614224)">
                    <path d="M194.027,835.44L194.027,882.395C194.027,893.394 189.396,902.323 183.692,902.323C177.989,902.323 173.358,893.394 173.358,882.395L173.358,835.44C173.358,824.442 177.989,815.512 183.692,815.512C189.396,815.512 194.027,824.442 194.027,835.44Z" style="fill:white;"/>
                </g>
            </g>
            <g transform="matrix(14.8128,0,0,6.149212,920.732696,-1079.650087)">
                <g transform="matrix(0.160253,0,0,0.160253,165.0001,922.053515)">
                    <path d="M194.027,840.407L194.027,877.428C194.027,891.168 189.396,902.323 183.692,902.323C177.989,902.323 173.358,891.168 173.358,877.428L173.358,840.407C173.358,826.667 177.989,815.512 183.692,815.512C189.396,815.512 194.027,826.667 194.027,840.407Z" style="fill:none;stroke:rgb(235,235,235);stroke-width:0.37px;stroke-miterlimit:100;"/>
                </g>
                <g transform="matrix(0.160253,0,0,0.160253,165.0001,922.053515)">
                    <path d="M194.027,840.407L194.027,877.428C194.027,891.168 189.396,902.323 183.692,902.323C177.989,902.323 173.358,891.168 173.358,877.428L173.358,840.407C173.358,826.667 177.989,815.512 183.692,815.512C189.396,815.512 194.027,826.667 194.027,840.407Z" style="fill:white;"/>
                </g>
            </g>
            <g transform="matrix(0.698671,-0.000027,0.000033,0.838405,3606.118552,5013.751555)">
                <path d="M278.735,748.482L406.465,994.117C303.628,883.562 223.594,915.566 151.004,994.117L278.735,748.482Z" style="fill:white;"/>
            </g>
            <g transform="matrix(0.667722,0,0,0.667722,3228.832828,4741.459399)">
                <path d="M310.547,1623.355C66.751,1621.635 -53.769,1271.294 204.386,1148.17" style="fill:none;stroke:rgb(237,162,16);stroke-width:75px;stroke-miterlimit:100;"/>
            </g>
            <g transform="matrix(0.667722,0,0,0.667722,3236.925629,4734.916082)">
                <path d="M91.692,1218.925C9.164,1076.343 37.977,943.416 138.373,872.152" style="fill:none;stroke:rgb(237,162,16);stroke-width:75px;stroke-miterlimit:100;"/>
            </g>
            <g transform="matrix(0.667722,0,0,0.667722,3253.948343,4763.270458)">
                <path d="M370.977,1004.707C75.501,999.643 -1.686,649.651 327.825,571.635" style="fill:none;stroke:rgb(237,162,16);stroke-width:75px;stroke-miterlimit:100;"/>
            </g>
            <g transform="matrix(0.667722,0,0,0.667722,3217.295677,4763.270458)">
                <path d="M425.869,699.028C271.162,342.611 737.006,156.392 874.016,405.044" style="fill:none;stroke:rgb(237,162,16);stroke-width:75px;stroke-miterlimit:100;"/>
            </g>
            <g transform="matrix(-0.667722,0,0,0.667722,4384.495304,4763.270458)">
                <path d="M425.869,699.028C239.614,311.622 716.212,143.6 874.016,405.044" style="fill:none;stroke:rgb(237,162,16);stroke-width:75px;stroke-miterlimit:100;"/>
            </g>
            <g transform="matrix(0.667722,0,0,0.667722,3217.295677,4763.270458)">
                <path d="M1318.258,699.028C1487.365,589.727 1743.594,642.811 1533.846,986.479" style="fill:none;stroke:rgb(237,162,16);stroke-width:75px;stroke-miterlimit:100;"/>
            </g>
            <g transform="matrix(0.667722,0,0,0.667722,3217.295677,4763.270458)">
                <path d="M1600.207,875.418C1731.046,1034.645 1720.945,1331.064 1504.448,1382.496" style="fill:none;stroke:rgb(237,162,16);stroke-width:75px;stroke-miterlimit:100;"/>
            </g>
            <g transform="matrix(0.667722,0,0,0.667722,3217.295677,4763.270458)">
                <path d="M1616.306,1332.726C1798.217,1601.215 1386.758,1711.611 1153.033,1522.183" style="fill:none;stroke:rgb(237,162,16);stroke-width:75px;stroke-miterlimit:100;"/>
            </g>
            <g transform="matrix(0.667722,0,0,0.667722,3217.295677,4763.270458)">
                <path d="M1395.278,986.479C1259.637,994.606 1175.436,1136.213 1153.033,1240.157" style="fill:none;stroke:rgb(237,162,16);stroke-width:75px;stroke-miterlimit:100;"/>
            </g>
        </g>
    </g>
    <g transform="matrix(1,0,0,1,-152.449974,161.689367)">
        <g transform="matrix(1,0,0,1,173.238612,20.788633)">
            <path d="M1544.39,771.805L1596.59,771.805L1596.59,693.205L1630.79,693.205C1686.89,693.205 1720.79,666.805 1720.79,620.005C1720.79,573.205 1686.89,546.805 1630.79,546.805L1544.39,546.805L1544.39,771.805ZM1596.59,649.105L1596.59,590.905L1630.79,590.905C1651.79,590.905 1666.79,600.205 1666.79,620.005C1666.79,639.805 1651.79,649.105 1630.79,649.105L1596.59,649.105Z" style="fill:rgb(60,60,59);fill-rule:nonzero;"/>
        </g>
        <g transform="matrix(1,0,0,1,173.238612,20.788633)">
            <path d="M1819.79,776.305C1871.09,776.305 1907.39,739.405 1907.39,686.905C1907.39,633.805 1871.09,596.305 1819.79,596.305C1768.49,596.305 1732.19,633.805 1732.19,686.905C1732.19,739.405 1768.49,776.305 1819.79,776.305ZM1819.79,734.305C1797.29,734.305 1781.69,715.105 1781.69,686.905C1781.69,658.105 1797.29,638.305 1819.79,638.305C1842.29,638.305 1857.89,658.105 1857.89,686.905C1857.89,715.105 1842.29,734.305 1819.79,734.305Z" style="fill:rgb(60,60,59);fill-rule:nonzero;"/>
        </g>
        <g transform="matrix(1,0,0,1,173.238612,20.788633)">
            <path d="M1931.99,771.805L1980.59,771.805L1980.59,673.105C1980.59,644.305 1997.39,638.305 2015.99,638.305C2024.39,638.305 2030.69,639.505 2038.19,640.705L2038.19,599.005C2026.79,596.605 2014.19,596.305 2009.09,596.305C1959.29,596.305 1931.99,623.605 1931.99,672.805L1931.99,771.805Z" style="fill:rgb(60,60,59);fill-rule:nonzero;"/>
        </g>
        <g transform="matrix(1,0,0,1,173.238612,20.788633)">
            <path d="M2128.49,771.805L2170.49,771.805L2170.49,729.805L2143.19,729.805C2135.99,729.805 2130.59,724.405 2130.59,716.905L2130.59,639.805L2165.39,639.805L2165.39,600.805L2130.59,600.805L2130.59,555.805L2081.99,555.805L2081.99,600.805L2053.79,600.805L2053.79,639.805L2081.99,639.805L2081.99,725.305C2081.99,753.205 2100.59,771.805 2128.49,771.805Z" style="fill:rgb(60,60,59);fill-rule:nonzero;"/>
        </g>
        <g transform="matrix(1,0,0,1,173.238612,20.788633)">
            <path d="M2215.49,582.205C2230.79,582.205 2242.79,572.005 2242.79,557.305C2242.79,542.905 2230.79,532.705 2215.49,532.705C2199.89,532.705 2187.89,542.905 2187.89,557.305C2187.89,572.005 2199.89,582.205 2215.49,582.205ZM2191.19,771.805L2239.79,771.805L2239.79,600.805L2191.19,600.805L2191.19,771.805Z" style="fill:rgb(60,60,59);fill-rule:nonzero;"/>
        </g>
        <g transform="matrix(1,0,0,1,173.238612,20.788633)">
            <path d="M2270.39,771.805L2318.99,771.805L2318.99,671.905C2318.99,650.305 2330.99,638.305 2347.79,638.305C2364.89,638.305 2376.59,650.305 2376.59,671.905L2376.59,771.805L2425.19,771.805L2425.19,671.305C2425.19,625.105 2395.19,596.305 2347.79,596.305C2300.39,596.305 2270.39,625.105 2270.39,671.305L2270.39,771.805Z" style="fill:rgb(60,60,59);fill-rule:nonzero;"/>
        </g>
        <g transform="matrix(1,0,0,1,173.238612,20.788633)">
            <path d="M2537.39,776.305C2588.69,776.305 2624.99,739.405 2624.99,686.905C2624.99,633.805 2588.69,596.305 2537.39,596.305C2486.09,596.305 2449.79,633.805 2449.79,686.905C2449.79,739.405 2486.09,776.305 2537.39,776.305ZM2537.39,734.305C2514.89,734.305 2499.29,715.105 2499.29,686.905C2499.29,658.105 2514.89,638.305 2537.39,638.305C2559.89,638.305 2575.49,658.105 2575.49,686.905C2575.49,715.105 2559.89,734.305 2537.39,734.305Z" style="fill:rgb(60,60,59);fill-rule:nonzero;"/>
        </g>
        <g transform="matrix(1,0,0,1,173.238612,20.788633)">
            <rect x="2661.59" y="661.705" width="92.4" height="44.4" style="fill:rgb(60,60,59);fill-rule:nonzero;"/>
        </g>
        <g transform="matrix(1,0,0,1,173.238612,20.788633)">
            <path d="M2923.79,776.305C2945.39,776.305 2957.99,762.805 2963.99,738.505L2996.09,610.405C2996.39,609.205 2997.59,609.805 2997.59,610.705L2997.59,771.505L3048.59,771.505L3048.59,588.805C3048.59,559.105 3029.99,542.305 3004.79,542.305C2980.49,542.305 2964.59,557.305 2957.09,585.205L2924.39,708.205C2924.09,709.405 2922.89,709.405 2922.59,708.205L2888.99,585.205C2881.19,556.105 2866.19,542.305 2842.49,542.305C2817.29,542.305 2798.39,559.105 2798.39,588.805L2798.39,771.505L2849.69,771.505L2849.69,612.805C2849.69,611.905 2850.89,611.605 2851.19,612.505L2882.99,738.505C2889.29,763.105 2902.19,776.305 2923.79,776.305Z" style="fill:rgb(60,60,59);fill-rule:nonzero;"/>
        </g>
        <g transform="matrix(1,0,0,1,173.238612,20.788633)">
            <path d="M3092.99,771.805L3145.19,771.805L3145.19,693.205L3179.39,693.205C3235.49,693.205 3269.39,666.805 3269.39,620.005C3269.39,573.205 3235.49,546.805 3179.39,546.805L3092.99,546.805L3092.99,771.805ZM3145.19,649.105L3145.19,590.905L3179.39,590.905C3200.39,590.905 3215.39,600.205 3215.39,620.005C3215.39,639.805 3200.39,649.105 3179.39,649.105L3145.19,649.105Z" style="fill:rgb(60,60,59);fill-rule:nonzero;"/>
        </g>
        <g transform="matrix(1,0,0,1,173.238612,20.788633)">
            <path d="M3397.79,776.305C3454.79,776.305 3493.79,740.905 3493.79,684.805L3493.79,546.805L3440.99,546.805L3440.99,684.805C3440.99,713.305 3424.19,731.305 3397.19,731.305C3370.79,731.305 3353.99,713.305 3353.99,684.805L3353.99,546.805L3301.19,546.805L3301.19,684.805C3301.19,740.905 3340.19,776.305 3397.79,776.305Z" style="fill:rgb(60,60,59);fill-rule:nonzero;"/>
        </g>
    </g>
</svg>
